<mxfile host="app.diagrams.net" agent="Mozilla/5.0 (Windows NT 10.0; Win64; x64) AppleWebKit/537.36 (KHTML, like Gecko) Chrome/134.0.0.0 Safari/537.36 Edg/134.0.0.0" version="26.0.16" pages="2">
  <diagram name="ERD" id="0">
    <mxGraphModel dx="907" dy="1961" grid="1" gridSize="10" guides="1" tooltips="1" connect="1" arrows="1" fold="1" page="1" pageScale="1" pageWidth="827" pageHeight="1169" background="none" math="0" shadow="0">
      <root>
        <mxCell id="0" />
        <mxCell id="1" parent="0" />
        <mxCell id="62" style="edgeStyle=none;html=1;exitX=0;exitY=0.5;exitDx=0;exitDy=0;entryX=1;entryY=0.5;entryDx=0;entryDy=0;" parent="1" source="48" target="176" edge="1">
          <mxGeometry relative="1" as="geometry">
            <mxPoint x="114.35533905932743" y="-325.85786437626894" as="targetPoint" />
          </mxGeometry>
        </mxCell>
        <mxCell id="63" style="edgeStyle=none;html=1;exitX=0;exitY=0.5;exitDx=0;exitDy=0;entryX=1;entryY=0.5;entryDx=0;entryDy=0;" parent="1" source="48" target="58" edge="1">
          <mxGeometry relative="1" as="geometry" />
        </mxCell>
        <mxCell id="64" style="edgeStyle=none;html=1;exitX=0;exitY=0.5;exitDx=0;exitDy=0;entryX=1;entryY=0.5;entryDx=0;entryDy=0;" parent="1" source="48" target="56" edge="1">
          <mxGeometry relative="1" as="geometry" />
        </mxCell>
        <mxCell id="65" style="edgeStyle=none;html=1;exitX=0;exitY=0.5;exitDx=0;exitDy=0;entryX=1;entryY=0.5;entryDx=0;entryDy=0;" parent="1" source="48" target="59" edge="1">
          <mxGeometry relative="1" as="geometry" />
        </mxCell>
        <mxCell id="66" style="edgeStyle=none;html=1;exitX=0;exitY=0.5;exitDx=0;exitDy=0;entryX=1;entryY=0.5;entryDx=0;entryDy=0;" parent="1" source="48" target="60" edge="1">
          <mxGeometry relative="1" as="geometry" />
        </mxCell>
        <mxCell id="48" value="Customers" style="rounded=1;arcSize=10;whiteSpace=wrap;html=1;align=center;" parent="1" vertex="1">
          <mxGeometry x="180" y="-241" width="100" height="40" as="geometry" />
        </mxCell>
        <mxCell id="73" style="edgeStyle=none;html=1;exitX=1;exitY=0.5;exitDx=0;exitDy=0;entryX=0;entryY=0.5;entryDx=0;entryDy=0;" parent="1" source="49" target="178" edge="1">
          <mxGeometry relative="1" as="geometry">
            <mxPoint x="996" y="-99" as="targetPoint" />
          </mxGeometry>
        </mxCell>
        <mxCell id="74" style="edgeStyle=none;html=1;exitX=1;exitY=0.5;exitDx=0;exitDy=0;entryX=0;entryY=0.5;entryDx=0;entryDy=0;" parent="1" source="49" target="69" edge="1">
          <mxGeometry relative="1" as="geometry" />
        </mxCell>
        <mxCell id="75" style="edgeStyle=none;html=1;exitX=1;exitY=0.5;exitDx=0;exitDy=0;entryX=0;entryY=0.5;entryDx=0;entryDy=0;" parent="1" source="49" target="70" edge="1">
          <mxGeometry relative="1" as="geometry" />
        </mxCell>
        <mxCell id="76" style="edgeStyle=none;html=1;exitX=1;exitY=0.5;exitDx=0;exitDy=0;entryX=0;entryY=0.5;entryDx=0;entryDy=0;" parent="1" source="49" target="67" edge="1">
          <mxGeometry relative="1" as="geometry" />
        </mxCell>
        <mxCell id="77" style="edgeStyle=none;html=1;exitX=1;exitY=0.5;exitDx=0;exitDy=0;entryX=0;entryY=0.5;entryDx=0;entryDy=0;" parent="1" source="49" target="71" edge="1">
          <mxGeometry relative="1" as="geometry" />
        </mxCell>
        <mxCell id="78" style="edgeStyle=none;html=1;exitX=1;exitY=0.5;exitDx=0;exitDy=0;entryX=0;entryY=0.5;entryDx=0;entryDy=0;" parent="1" source="49" target="72" edge="1">
          <mxGeometry relative="1" as="geometry" />
        </mxCell>
        <mxCell id="49" value="Dishes" style="rounded=1;arcSize=10;whiteSpace=wrap;html=1;align=center;" parent="1" vertex="1">
          <mxGeometry x="830" y="31" width="100" height="40" as="geometry" />
        </mxCell>
        <mxCell id="94" style="edgeStyle=none;html=1;exitX=1;exitY=0.5;exitDx=0;exitDy=0;entryX=0;entryY=0.5;entryDx=0;entryDy=0;" parent="1" source="51" target="184" edge="1">
          <mxGeometry relative="1" as="geometry">
            <mxPoint x="950" y="286" as="targetPoint" />
          </mxGeometry>
        </mxCell>
        <mxCell id="95" style="edgeStyle=none;html=1;exitX=1;exitY=0.5;exitDx=0;exitDy=0;entryX=0;entryY=0.5;entryDx=0;entryDy=0;" parent="1" source="51" target="93" edge="1">
          <mxGeometry relative="1" as="geometry" />
        </mxCell>
        <mxCell id="51" value="Categories" style="rounded=1;arcSize=10;whiteSpace=wrap;html=1;align=center;" parent="1" vertex="1">
          <mxGeometry x="830" y="297.5" width="100" height="40" as="geometry" />
        </mxCell>
        <mxCell id="84" style="edgeStyle=none;html=1;exitX=0;exitY=0.5;exitDx=0;exitDy=0;entryX=1;entryY=0.5;entryDx=0;entryDy=0;" parent="1" source="52" target="182" edge="1">
          <mxGeometry relative="1" as="geometry">
            <mxPoint x="450" y="346" as="sourcePoint" />
            <mxPoint x="616" y="227" as="targetPoint" />
          </mxGeometry>
        </mxCell>
        <mxCell id="85" style="edgeStyle=none;html=1;exitX=0;exitY=0.5;exitDx=0;exitDy=0;entryX=1;entryY=0.5;entryDx=0;entryDy=0;" parent="1" source="52" target="81" edge="1">
          <mxGeometry relative="1" as="geometry">
            <mxPoint x="450" y="346" as="sourcePoint" />
            <mxPoint x="644" y="297" as="targetPoint" />
          </mxGeometry>
        </mxCell>
        <mxCell id="86" style="edgeStyle=none;html=1;exitX=0;exitY=0.5;exitDx=0;exitDy=0;entryX=1;entryY=0.5;entryDx=0;entryDy=0;" parent="1" source="52" target="82" edge="1">
          <mxGeometry relative="1" as="geometry">
            <mxPoint x="450" y="346" as="sourcePoint" />
          </mxGeometry>
        </mxCell>
        <mxCell id="87" style="edgeStyle=none;html=1;exitX=0;exitY=0.5;exitDx=0;exitDy=0;entryX=1;entryY=0.5;entryDx=0;entryDy=0;" parent="1" source="52" target="79" edge="1">
          <mxGeometry relative="1" as="geometry">
            <mxPoint x="450" y="346" as="sourcePoint" />
          </mxGeometry>
        </mxCell>
        <mxCell id="88" style="edgeStyle=none;html=1;exitX=0;exitY=0.5;exitDx=0;exitDy=0;entryX=1;entryY=0.5;entryDx=0;entryDy=0;" parent="1" source="52" target="83" edge="1">
          <mxGeometry relative="1" as="geometry">
            <mxPoint x="450" y="346" as="sourcePoint" />
          </mxGeometry>
        </mxCell>
        <mxCell id="52" value="Suppliers" style="rounded=1;arcSize=10;whiteSpace=wrap;html=1;align=center;" parent="1" vertex="1">
          <mxGeometry x="670" y="297.5" width="100" height="40" as="geometry" />
        </mxCell>
        <mxCell id="152" style="edgeStyle=none;html=1;exitX=0.5;exitY=0;exitDx=0;exitDy=0;entryX=0;entryY=0.5;entryDx=0;entryDy=0;" parent="1" source="54" target="171" edge="1">
          <mxGeometry relative="1" as="geometry">
            <mxPoint x="619.9999999999998" y="-531" as="targetPoint" />
          </mxGeometry>
        </mxCell>
        <mxCell id="153" style="edgeStyle=none;html=1;exitX=0.5;exitY=0;exitDx=0;exitDy=0;entryX=0.5;entryY=1;entryDx=0;entryDy=0;" parent="1" source="54" target="149" edge="1">
          <mxGeometry relative="1" as="geometry" />
        </mxCell>
        <mxCell id="154" style="edgeStyle=none;html=1;exitX=0.5;exitY=0;exitDx=0;exitDy=0;entryX=1;entryY=0.5;entryDx=0;entryDy=0;" parent="1" source="54" target="150" edge="1">
          <mxGeometry relative="1" as="geometry" />
        </mxCell>
        <mxCell id="155" value="" style="edgeStyle=none;html=1;" parent="1" source="54" target="151" edge="1">
          <mxGeometry relative="1" as="geometry" />
        </mxCell>
        <mxCell id="156" style="edgeStyle=none;html=1;exitX=0;exitY=0.5;exitDx=0;exitDy=0;entryX=1;entryY=0.5;entryDx=0;entryDy=0;" parent="1" source="54" target="147" edge="1">
          <mxGeometry relative="1" as="geometry" />
        </mxCell>
        <mxCell id="54" value="P&lt;span style=&quot;background-color: transparent;&quot;&gt;ayments&lt;/span&gt;" style="rounded=1;arcSize=10;whiteSpace=wrap;html=1;align=center;" parent="1" vertex="1">
          <mxGeometry x="500" y="-470" width="100" height="40" as="geometry" />
        </mxCell>
        <mxCell id="56" value="Address" style="ellipse;whiteSpace=wrap;html=1;align=center;" parent="1" vertex="1">
          <mxGeometry x="29" y="-179" width="100" height="40" as="geometry" />
        </mxCell>
        <mxCell id="58" value="Name" style="ellipse;whiteSpace=wrap;html=1;align=center;" parent="1" vertex="1">
          <mxGeometry x="29" y="-297" width="100" height="40" as="geometry" />
        </mxCell>
        <mxCell id="59" value="Phone" style="ellipse;whiteSpace=wrap;html=1;align=center;" parent="1" vertex="1">
          <mxGeometry x="29" y="-241" width="100" height="40" as="geometry" />
        </mxCell>
        <mxCell id="60" value="Email" style="ellipse;whiteSpace=wrap;html=1;align=center;" parent="1" vertex="1">
          <mxGeometry x="29" y="-126" width="100" height="40" as="geometry" />
        </mxCell>
        <mxCell id="67" value="Description" style="ellipse;whiteSpace=wrap;html=1;align=center;" parent="1" vertex="1">
          <mxGeometry x="996" y="62" width="100" height="40" as="geometry" />
        </mxCell>
        <mxCell id="69" value="Name" style="ellipse;whiteSpace=wrap;html=1;align=center;" parent="1" vertex="1">
          <mxGeometry x="996" y="-56" width="100" height="40" as="geometry" />
        </mxCell>
        <mxCell id="70" value="Price" style="ellipse;whiteSpace=wrap;html=1;align=center;" parent="1" vertex="1">
          <mxGeometry x="996" width="100" height="40" as="geometry" />
        </mxCell>
        <mxCell id="71" value="CategoryId" style="ellipse;whiteSpace=wrap;html=1;align=center;" parent="1" vertex="1">
          <mxGeometry x="996" y="115" width="100" height="40" as="geometry" />
        </mxCell>
        <mxCell id="72" value="supplier_id" style="ellipse;whiteSpace=wrap;html=1;align=center;" parent="1" vertex="1">
          <mxGeometry x="996" y="176" width="100" height="40" as="geometry" />
        </mxCell>
        <mxCell id="79" value="Address" style="ellipse;whiteSpace=wrap;html=1;align=center;" parent="1" vertex="1">
          <mxGeometry x="516" y="388" width="100" height="40" as="geometry" />
        </mxCell>
        <mxCell id="81" value="Name" style="ellipse;whiteSpace=wrap;html=1;align=center;" parent="1" vertex="1">
          <mxGeometry x="516" y="270" width="100" height="40" as="geometry" />
        </mxCell>
        <mxCell id="82" value="Phone" style="ellipse;whiteSpace=wrap;html=1;align=center;" parent="1" vertex="1">
          <mxGeometry x="516" y="326" width="100" height="40" as="geometry" />
        </mxCell>
        <mxCell id="83" value="Email" style="ellipse;whiteSpace=wrap;html=1;align=center;" parent="1" vertex="1">
          <mxGeometry x="516" y="441" width="100" height="40" as="geometry" />
        </mxCell>
        <mxCell id="93" value="Name" style="ellipse;whiteSpace=wrap;html=1;align=center;" parent="1" vertex="1">
          <mxGeometry x="950" y="329" width="100" height="40" as="geometry" />
        </mxCell>
        <mxCell id="104" style="edgeStyle=none;html=1;exitX=1;exitY=0.5;exitDx=0;exitDy=0;entryX=0;entryY=0.5;entryDx=0;entryDy=0;" parent="1" source="112" target="177" edge="1">
          <mxGeometry relative="1" as="geometry">
            <mxPoint x="590" y="-221" as="sourcePoint" />
            <mxPoint x="654" y="-336" as="targetPoint" />
          </mxGeometry>
        </mxCell>
        <mxCell id="105" style="edgeStyle=none;html=1;exitX=1;exitY=0.5;exitDx=0;exitDy=0;entryX=0;entryY=0.5;entryDx=0;entryDy=0;" parent="1" source="112" target="99" edge="1">
          <mxGeometry relative="1" as="geometry">
            <mxPoint x="590" y="-221" as="sourcePoint" />
          </mxGeometry>
        </mxCell>
        <mxCell id="106" style="edgeStyle=none;html=1;exitX=1;exitY=0.5;exitDx=0;exitDy=0;entryX=0;entryY=0.5;entryDx=0;entryDy=0;" parent="1" source="112" target="100" edge="1">
          <mxGeometry relative="1" as="geometry">
            <mxPoint x="590" y="-221" as="sourcePoint" />
          </mxGeometry>
        </mxCell>
        <mxCell id="108" style="edgeStyle=none;html=1;entryX=0;entryY=0.5;entryDx=0;entryDy=0;exitX=1;exitY=0.5;exitDx=0;exitDy=0;" parent="1" source="112" target="97" edge="1">
          <mxGeometry relative="1" as="geometry">
            <mxPoint x="500" y="-220" as="sourcePoint" />
          </mxGeometry>
        </mxCell>
        <mxCell id="109" style="edgeStyle=none;html=1;exitX=1;exitY=0.5;exitDx=0;exitDy=0;entryX=0;entryY=0.5;entryDx=0;entryDy=0;" parent="1" source="112" target="101" edge="1">
          <mxGeometry relative="1" as="geometry">
            <mxPoint x="590" y="-221" as="sourcePoint" />
          </mxGeometry>
        </mxCell>
        <mxCell id="97" value="TotalAmount" style="ellipse;whiteSpace=wrap;html=1;align=center;" parent="1" vertex="1">
          <mxGeometry x="654" y="-179" width="100" height="40" as="geometry" />
        </mxCell>
        <mxCell id="99" value="CustomerID" style="ellipse;whiteSpace=wrap;html=1;align=center;" parent="1" vertex="1">
          <mxGeometry x="654" y="-297" width="100" height="40" as="geometry" />
        </mxCell>
        <mxCell id="100" value="OrderDate" style="ellipse;whiteSpace=wrap;html=1;align=center;" parent="1" vertex="1">
          <mxGeometry x="654" y="-241" width="100" height="40" as="geometry" />
        </mxCell>
        <mxCell id="101" value="Status" style="ellipse;whiteSpace=wrap;html=1;align=center;" parent="1" vertex="1">
          <mxGeometry x="654" y="-126" width="100" height="40" as="geometry" />
        </mxCell>
        <mxCell id="112" value="Orders" style="rounded=1;arcSize=10;whiteSpace=wrap;html=1;align=center;" parent="1" vertex="1">
          <mxGeometry x="500" y="-241" width="100" height="40" as="geometry" />
        </mxCell>
        <mxCell id="116" value="Thực hiện" style="shape=rhombus;perimeter=rhombusPerimeter;whiteSpace=wrap;html=1;align=center;" parent="1" vertex="1">
          <mxGeometry x="330" y="-251" width="120" height="60" as="geometry" />
        </mxCell>
        <mxCell id="119" value="" style="fontSize=12;html=1;endArrow=ERoneToMany;exitX=1;exitY=0.5;exitDx=0;exitDy=0;entryX=0;entryY=0.5;entryDx=0;entryDy=0;" parent="1" source="116" target="112" edge="1">
          <mxGeometry width="100" height="100" relative="1" as="geometry">
            <mxPoint x="560" y="-191" as="sourcePoint" />
            <mxPoint x="560" y="74" as="targetPoint" />
          </mxGeometry>
        </mxCell>
        <mxCell id="121" value="" style="endArrow=none;html=1;rounded=0;exitX=1;exitY=0.5;exitDx=0;exitDy=0;entryX=0;entryY=0.5;entryDx=0;entryDy=0;" parent="1" source="48" target="116" edge="1">
          <mxGeometry relative="1" as="geometry">
            <mxPoint x="170" y="-100" as="sourcePoint" />
            <mxPoint x="330" y="-100" as="targetPoint" />
          </mxGeometry>
        </mxCell>
        <mxCell id="122" value="Bao Gồm" style="shape=rhombus;perimeter=rhombusPerimeter;whiteSpace=wrap;html=1;align=center;" parent="1" vertex="1">
          <mxGeometry x="820" y="147" width="120" height="60" as="geometry" />
        </mxCell>
        <mxCell id="126" value="" style="endArrow=none;html=1;rounded=0;exitX=0.5;exitY=1;exitDx=0;exitDy=0;entryX=0.5;entryY=0;entryDx=0;entryDy=0;" parent="1" source="122" target="51" edge="1">
          <mxGeometry relative="1" as="geometry">
            <mxPoint x="900" y="91" as="sourcePoint" />
            <mxPoint x="900" y="167" as="targetPoint" />
          </mxGeometry>
        </mxCell>
        <mxCell id="128" value="Cung cấp" style="shape=rhombus;perimeter=rhombusPerimeter;whiteSpace=wrap;html=1;align=center;" parent="1" vertex="1">
          <mxGeometry x="660" y="147" width="120" height="60" as="geometry" />
        </mxCell>
        <mxCell id="131" value="" style="endArrow=none;html=1;rounded=0;exitX=0.5;exitY=1;exitDx=0;exitDy=0;entryX=0.5;entryY=0;entryDx=0;entryDy=0;" parent="1" source="128" target="52" edge="1">
          <mxGeometry relative="1" as="geometry">
            <mxPoint x="656" y="192" as="sourcePoint" />
            <mxPoint x="698" y="172" as="targetPoint" />
          </mxGeometry>
        </mxCell>
        <mxCell id="139" style="edgeStyle=none;html=1;exitX=0;exitY=0.5;exitDx=0;exitDy=0;entryX=1;entryY=0.5;entryDx=0;entryDy=0;" parent="1" source="133" target="175" edge="1">
          <mxGeometry relative="1" as="geometry">
            <mxPoint x="380" y="-59" as="targetPoint" />
          </mxGeometry>
        </mxCell>
        <mxCell id="140" style="edgeStyle=none;html=1;exitX=0;exitY=0.5;exitDx=0;exitDy=0;entryX=1;entryY=0.5;entryDx=0;entryDy=0;" parent="1" source="133" target="136" edge="1">
          <mxGeometry relative="1" as="geometry" />
        </mxCell>
        <mxCell id="142" style="edgeStyle=none;html=1;exitX=0;exitY=0.5;exitDx=0;exitDy=0;entryX=1;entryY=0.5;entryDx=0;entryDy=0;" parent="1" source="133" target="134" edge="1">
          <mxGeometry relative="1" as="geometry" />
        </mxCell>
        <mxCell id="143" style="edgeStyle=none;html=1;exitX=0;exitY=0.5;exitDx=0;exitDy=0;entryX=1;entryY=0.5;entryDx=0;entryDy=0;" parent="1" source="133" target="138" edge="1">
          <mxGeometry relative="1" as="geometry" />
        </mxCell>
        <mxCell id="133" value="OrderDetails" style="shape=associativeEntity;whiteSpace=wrap;html=1;align=center;" parent="1" vertex="1">
          <mxGeometry x="480" y="21" width="140" height="60" as="geometry" />
        </mxCell>
        <mxCell id="134" value="Quantity" style="ellipse;whiteSpace=wrap;html=1;align=center;" parent="1" vertex="1">
          <mxGeometry x="280" y="98" width="100" height="40" as="geometry" />
        </mxCell>
        <mxCell id="136" value="OrderID" style="ellipse;whiteSpace=wrap;html=1;align=center;" parent="1" vertex="1">
          <mxGeometry x="280" y="-20" width="100" height="40" as="geometry" />
        </mxCell>
        <mxCell id="137" value="DishID" style="ellipse;whiteSpace=wrap;html=1;align=center;" parent="1" vertex="1">
          <mxGeometry x="280" y="36" width="100" height="40" as="geometry" />
        </mxCell>
        <mxCell id="138" value="PriceAtTime" style="ellipse;whiteSpace=wrap;html=1;align=center;" parent="1" vertex="1">
          <mxGeometry x="280" y="151" width="100" height="40" as="geometry" />
        </mxCell>
        <mxCell id="141" style="edgeStyle=none;html=1;exitX=0;exitY=0.5;exitDx=0;exitDy=0;entryX=1;entryY=0.5;entryDx=0;entryDy=0;" parent="1" source="133" target="137" edge="1">
          <mxGeometry relative="1" as="geometry" />
        </mxCell>
        <mxCell id="147" value="OrderID" style="ellipse;whiteSpace=wrap;html=1;align=center;" parent="1" vertex="1">
          <mxGeometry x="380" y="-480" width="100" height="40" as="geometry" />
        </mxCell>
        <mxCell id="149" value="Amount" style="ellipse;whiteSpace=wrap;html=1;align=center;" parent="1" vertex="1">
          <mxGeometry x="500" y="-551" width="100" height="40" as="geometry" />
        </mxCell>
        <mxCell id="150" value="PaymentMethod" style="ellipse;whiteSpace=wrap;html=1;align=center;" parent="1" vertex="1">
          <mxGeometry x="380" y="-551" width="100" height="40" as="geometry" />
        </mxCell>
        <mxCell id="151" value="PaymentDate" style="ellipse;whiteSpace=wrap;html=1;align=center;" parent="1" vertex="1">
          <mxGeometry x="620" y="-480" width="100" height="40" as="geometry" />
        </mxCell>
        <mxCell id="157" value="Gồm" style="shape=rhombus;perimeter=rhombusPerimeter;whiteSpace=wrap;html=1;align=center;" parent="1" vertex="1">
          <mxGeometry x="490" y="-126" width="120" height="60" as="geometry" />
        </mxCell>
        <mxCell id="159" value="" style="fontSize=12;html=1;endArrow=ERoneToMany;entryX=0.5;entryY=0;entryDx=0;entryDy=0;exitX=0.5;exitY=1;exitDx=0;exitDy=0;" parent="1" source="157" target="133" edge="1">
          <mxGeometry width="100" height="100" relative="1" as="geometry">
            <mxPoint x="550" y="-89" as="sourcePoint" />
            <mxPoint x="540" y="71" as="targetPoint" />
          </mxGeometry>
        </mxCell>
        <mxCell id="160" value="" style="endArrow=none;html=1;rounded=0;exitX=0.5;exitY=1;exitDx=0;exitDy=0;entryX=0.5;entryY=0;entryDx=0;entryDy=0;" parent="1" source="112" target="157" edge="1">
          <mxGeometry relative="1" as="geometry">
            <mxPoint x="540" y="-130" as="sourcePoint" />
            <mxPoint x="700" y="-130" as="targetPoint" />
          </mxGeometry>
        </mxCell>
        <mxCell id="161" value="Gồm" style="shape=rhombus;perimeter=rhombusPerimeter;whiteSpace=wrap;html=1;align=center;" parent="1" vertex="1">
          <mxGeometry x="660" y="21" width="120" height="60" as="geometry" />
        </mxCell>
        <mxCell id="165" value="" style="endArrow=none;html=1;rounded=0;exitX=0;exitY=0.5;exitDx=0;exitDy=0;entryX=1;entryY=0.5;entryDx=0;entryDy=0;" parent="1" source="49" target="161" edge="1">
          <mxGeometry relative="1" as="geometry">
            <mxPoint x="790" y="-156" as="sourcePoint" />
            <mxPoint x="790" y="-16" as="targetPoint" />
          </mxGeometry>
        </mxCell>
        <mxCell id="166" value="" style="fontSize=12;html=1;endArrow=ERoneToMany;entryX=1;entryY=0.5;entryDx=0;entryDy=0;exitX=0;exitY=0.5;exitDx=0;exitDy=0;" parent="1" source="161" target="133" edge="1">
          <mxGeometry width="100" height="100" relative="1" as="geometry">
            <mxPoint x="560" y="-80" as="sourcePoint" />
            <mxPoint x="560" y="31" as="targetPoint" />
          </mxGeometry>
        </mxCell>
        <mxCell id="167" value="Được" style="shape=rhombus;perimeter=rhombusPerimeter;whiteSpace=wrap;html=1;align=center;" parent="1" vertex="1">
          <mxGeometry x="490" y="-366" width="120" height="60" as="geometry" />
        </mxCell>
        <mxCell id="169" value="" style="endArrow=none;html=1;rounded=0;exitX=0.5;exitY=1;exitDx=0;exitDy=0;entryX=0.5;entryY=0;entryDx=0;entryDy=0;" parent="1" source="167" target="112" edge="1">
          <mxGeometry relative="1" as="geometry">
            <mxPoint x="560" y="-191" as="sourcePoint" />
            <mxPoint x="560" y="-90" as="targetPoint" />
          </mxGeometry>
        </mxCell>
        <mxCell id="170" value="" style="fontSize=12;html=1;endArrow=ERoneToMany;entryX=0.5;entryY=1;entryDx=0;entryDy=0;exitX=0.5;exitY=0;exitDx=0;exitDy=0;" parent="1" source="167" target="54" edge="1">
          <mxGeometry width="100" height="100" relative="1" as="geometry">
            <mxPoint x="560" y="-30" as="sourcePoint" />
            <mxPoint x="560" y="81" as="targetPoint" />
          </mxGeometry>
        </mxCell>
        <mxCell id="171" value="id" style="ellipse;whiteSpace=wrap;html=1;align=center;fontStyle=4;" parent="1" vertex="1">
          <mxGeometry x="620" y="-551" width="100" height="40" as="geometry" />
        </mxCell>
        <mxCell id="175" value="id" style="ellipse;whiteSpace=wrap;html=1;align=center;fontStyle=4;" parent="1" vertex="1">
          <mxGeometry x="280" y="-76" width="100" height="40" as="geometry" />
        </mxCell>
        <mxCell id="176" value="id" style="ellipse;whiteSpace=wrap;html=1;align=center;fontStyle=4;" parent="1" vertex="1">
          <mxGeometry x="29" y="-346" width="100" height="40" as="geometry" />
        </mxCell>
        <mxCell id="177" value="id" style="ellipse;whiteSpace=wrap;html=1;align=center;fontStyle=4;" parent="1" vertex="1">
          <mxGeometry x="654" y="-356" width="100" height="40" as="geometry" />
        </mxCell>
        <mxCell id="178" value="id" style="ellipse;whiteSpace=wrap;html=1;align=center;fontStyle=4;" parent="1" vertex="1">
          <mxGeometry x="996" y="-116" width="100" height="40" as="geometry" />
        </mxCell>
        <mxCell id="182" value="id" style="ellipse;whiteSpace=wrap;html=1;align=center;fontStyle=4;" parent="1" vertex="1">
          <mxGeometry x="510" y="216" width="100" height="40" as="geometry" />
        </mxCell>
        <mxCell id="184" value="id" style="ellipse;whiteSpace=wrap;html=1;align=center;fontStyle=4;" parent="1" vertex="1">
          <mxGeometry x="950" y="270" width="100" height="40" as="geometry" />
        </mxCell>
        <mxCell id="rN-Zllkz-rMCkQoVgusz-184" value="" style="fontSize=12;html=1;endArrow=ERoneToMany;entryX=0.5;entryY=1;entryDx=0;entryDy=0;exitX=0.5;exitY=0;exitDx=0;exitDy=0;" parent="1" source="122" target="49" edge="1">
          <mxGeometry width="100" height="100" relative="1" as="geometry">
            <mxPoint x="560" y="-56" as="sourcePoint" />
            <mxPoint x="560" y="31" as="targetPoint" />
          </mxGeometry>
        </mxCell>
        <mxCell id="185" value="" style="fontSize=12;html=1;endArrow=ERoneToMany;entryX=0;entryY=1;entryDx=0;entryDy=0;exitX=1;exitY=0;exitDx=0;exitDy=0;" edge="1" parent="1" source="128" target="49">
          <mxGeometry width="100" height="100" relative="1" as="geometry">
            <mxPoint x="890" y="157" as="sourcePoint" />
            <mxPoint x="890" y="81" as="targetPoint" />
          </mxGeometry>
        </mxCell>
      </root>
    </mxGraphModel>
  </diagram>
  <diagram id="poqkECcT_aBcf9lHeAcq" name="Lược đồ">
    <mxGraphModel dx="1236" dy="831" grid="1" gridSize="10" guides="1" tooltips="1" connect="1" arrows="1" fold="1" page="1" pageScale="1" pageWidth="827" pageHeight="1169" math="0" shadow="0">
      <root>
        <mxCell id="0" />
        <mxCell id="1" parent="0" />
        <mxCell id="g7ajFXyKTqt1ot6h7r_k-14" value="Customers" style="shape=table;startSize=30;container=1;collapsible=1;childLayout=tableLayout;fixedRows=1;rowLines=0;fontStyle=1;align=center;resizeLast=1;html=1;whiteSpace=wrap;" parent="1" vertex="1">
          <mxGeometry x="300" y="430" width="140" height="180" as="geometry" />
        </mxCell>
        <mxCell id="lesJdgjOnKgALjX5jG1v-100" value="" style="shape=tableRow;horizontal=0;startSize=0;swimlaneHead=0;swimlaneBody=0;fillColor=none;collapsible=0;dropTarget=0;points=[[0,0.5],[1,0.5]];portConstraint=eastwest;top=0;left=0;right=0;bottom=1;" parent="g7ajFXyKTqt1ot6h7r_k-14" vertex="1">
          <mxGeometry y="30" width="140" height="30" as="geometry" />
        </mxCell>
        <mxCell id="lesJdgjOnKgALjX5jG1v-101" value="PK" style="shape=partialRectangle;connectable=0;fillColor=none;top=0;left=0;bottom=0;right=0;fontStyle=1;overflow=hidden;whiteSpace=wrap;html=1;" parent="lesJdgjOnKgALjX5jG1v-100" vertex="1">
          <mxGeometry width="60" height="30" as="geometry">
            <mxRectangle width="60" height="30" as="alternateBounds" />
          </mxGeometry>
        </mxCell>
        <mxCell id="lesJdgjOnKgALjX5jG1v-102" value="ID" style="shape=partialRectangle;connectable=0;fillColor=none;top=0;left=0;bottom=0;right=0;align=left;spacingLeft=6;fontStyle=5;overflow=hidden;whiteSpace=wrap;html=1;" parent="lesJdgjOnKgALjX5jG1v-100" vertex="1">
          <mxGeometry x="60" width="80" height="30" as="geometry">
            <mxRectangle width="80" height="30" as="alternateBounds" />
          </mxGeometry>
        </mxCell>
        <mxCell id="g7ajFXyKTqt1ot6h7r_k-21" value="" style="shape=tableRow;horizontal=0;startSize=0;swimlaneHead=0;swimlaneBody=0;fillColor=none;collapsible=0;dropTarget=0;points=[[0,0.5],[1,0.5]];portConstraint=eastwest;top=0;left=0;right=0;bottom=0;html=1;" parent="g7ajFXyKTqt1ot6h7r_k-14" vertex="1">
          <mxGeometry y="60" width="140" height="30" as="geometry" />
        </mxCell>
        <mxCell id="g7ajFXyKTqt1ot6h7r_k-22" value="" style="shape=partialRectangle;connectable=0;fillColor=none;top=0;left=0;bottom=0;right=0;editable=1;overflow=hidden;html=1;whiteSpace=wrap;" parent="g7ajFXyKTqt1ot6h7r_k-21" vertex="1">
          <mxGeometry width="60" height="30" as="geometry">
            <mxRectangle width="60" height="30" as="alternateBounds" />
          </mxGeometry>
        </mxCell>
        <mxCell id="g7ajFXyKTqt1ot6h7r_k-23" value="Name" style="shape=partialRectangle;connectable=0;fillColor=none;top=0;left=0;bottom=0;right=0;align=left;spacingLeft=6;overflow=hidden;html=1;whiteSpace=wrap;" parent="g7ajFXyKTqt1ot6h7r_k-21" vertex="1">
          <mxGeometry x="60" width="80" height="30" as="geometry">
            <mxRectangle width="80" height="30" as="alternateBounds" />
          </mxGeometry>
        </mxCell>
        <mxCell id="g7ajFXyKTqt1ot6h7r_k-24" value="" style="shape=tableRow;horizontal=0;startSize=0;swimlaneHead=0;swimlaneBody=0;fillColor=none;collapsible=0;dropTarget=0;points=[[0,0.5],[1,0.5]];portConstraint=eastwest;top=0;left=0;right=0;bottom=0;html=1;" parent="g7ajFXyKTqt1ot6h7r_k-14" vertex="1">
          <mxGeometry y="90" width="140" height="30" as="geometry" />
        </mxCell>
        <mxCell id="g7ajFXyKTqt1ot6h7r_k-25" value="" style="shape=partialRectangle;connectable=0;fillColor=none;top=0;left=0;bottom=0;right=0;editable=1;overflow=hidden;html=1;whiteSpace=wrap;" parent="g7ajFXyKTqt1ot6h7r_k-24" vertex="1">
          <mxGeometry width="60" height="30" as="geometry">
            <mxRectangle width="60" height="30" as="alternateBounds" />
          </mxGeometry>
        </mxCell>
        <mxCell id="g7ajFXyKTqt1ot6h7r_k-26" value="Phone" style="shape=partialRectangle;connectable=0;fillColor=none;top=0;left=0;bottom=0;right=0;align=left;spacingLeft=6;overflow=hidden;html=1;whiteSpace=wrap;" parent="g7ajFXyKTqt1ot6h7r_k-24" vertex="1">
          <mxGeometry x="60" width="80" height="30" as="geometry">
            <mxRectangle width="80" height="30" as="alternateBounds" />
          </mxGeometry>
        </mxCell>
        <mxCell id="lesJdgjOnKgALjX5jG1v-89" value="" style="shape=tableRow;horizontal=0;startSize=0;swimlaneHead=0;swimlaneBody=0;fillColor=none;collapsible=0;dropTarget=0;points=[[0,0.5],[1,0.5]];portConstraint=eastwest;top=0;left=0;right=0;bottom=0;" parent="g7ajFXyKTqt1ot6h7r_k-14" vertex="1">
          <mxGeometry y="120" width="140" height="30" as="geometry" />
        </mxCell>
        <mxCell id="lesJdgjOnKgALjX5jG1v-90" value="" style="shape=partialRectangle;connectable=0;fillColor=none;top=0;left=0;bottom=0;right=0;editable=1;overflow=hidden;" parent="lesJdgjOnKgALjX5jG1v-89" vertex="1">
          <mxGeometry width="60" height="30" as="geometry">
            <mxRectangle width="60" height="30" as="alternateBounds" />
          </mxGeometry>
        </mxCell>
        <mxCell id="lesJdgjOnKgALjX5jG1v-91" value="Address" style="shape=partialRectangle;connectable=0;fillColor=none;top=0;left=0;bottom=0;right=0;align=left;spacingLeft=6;overflow=hidden;" parent="lesJdgjOnKgALjX5jG1v-89" vertex="1">
          <mxGeometry x="60" width="80" height="30" as="geometry">
            <mxRectangle width="80" height="30" as="alternateBounds" />
          </mxGeometry>
        </mxCell>
        <mxCell id="lesJdgjOnKgALjX5jG1v-86" value="" style="shape=tableRow;horizontal=0;startSize=0;swimlaneHead=0;swimlaneBody=0;fillColor=none;collapsible=0;dropTarget=0;points=[[0,0.5],[1,0.5]];portConstraint=eastwest;top=0;left=0;right=0;bottom=0;" parent="g7ajFXyKTqt1ot6h7r_k-14" vertex="1">
          <mxGeometry y="150" width="140" height="30" as="geometry" />
        </mxCell>
        <mxCell id="lesJdgjOnKgALjX5jG1v-87" value="" style="shape=partialRectangle;connectable=0;fillColor=none;top=0;left=0;bottom=0;right=0;editable=1;overflow=hidden;" parent="lesJdgjOnKgALjX5jG1v-86" vertex="1">
          <mxGeometry width="60" height="30" as="geometry">
            <mxRectangle width="60" height="30" as="alternateBounds" />
          </mxGeometry>
        </mxCell>
        <mxCell id="lesJdgjOnKgALjX5jG1v-88" value="Email" style="shape=partialRectangle;connectable=0;fillColor=none;top=0;left=0;bottom=0;right=0;align=left;spacingLeft=6;overflow=hidden;" parent="lesJdgjOnKgALjX5jG1v-86" vertex="1">
          <mxGeometry x="60" width="80" height="30" as="geometry">
            <mxRectangle width="80" height="30" as="alternateBounds" />
          </mxGeometry>
        </mxCell>
        <mxCell id="lesJdgjOnKgALjX5jG1v-103" value="Suppliers" style="shape=table;startSize=30;container=1;collapsible=1;childLayout=tableLayout;fixedRows=1;rowLines=0;fontStyle=1;align=center;resizeLast=1;html=1;whiteSpace=wrap;" parent="1" vertex="1">
          <mxGeometry x="880" y="530" width="130" height="180" as="geometry" />
        </mxCell>
        <mxCell id="lesJdgjOnKgALjX5jG1v-104" value="" style="shape=tableRow;horizontal=0;startSize=0;swimlaneHead=0;swimlaneBody=0;fillColor=none;collapsible=0;dropTarget=0;points=[[0,0.5],[1,0.5]];portConstraint=eastwest;top=0;left=0;right=0;bottom=1;" parent="lesJdgjOnKgALjX5jG1v-103" vertex="1">
          <mxGeometry y="30" width="130" height="30" as="geometry" />
        </mxCell>
        <mxCell id="lesJdgjOnKgALjX5jG1v-105" value="PK" style="shape=partialRectangle;connectable=0;fillColor=none;top=0;left=0;bottom=0;right=0;fontStyle=1;overflow=hidden;whiteSpace=wrap;html=1;" parent="lesJdgjOnKgALjX5jG1v-104" vertex="1">
          <mxGeometry width="60" height="30" as="geometry">
            <mxRectangle width="60" height="30" as="alternateBounds" />
          </mxGeometry>
        </mxCell>
        <mxCell id="lesJdgjOnKgALjX5jG1v-106" value="ID" style="shape=partialRectangle;connectable=0;fillColor=none;top=0;left=0;bottom=0;right=0;align=left;spacingLeft=6;fontStyle=5;overflow=hidden;whiteSpace=wrap;html=1;" parent="lesJdgjOnKgALjX5jG1v-104" vertex="1">
          <mxGeometry x="60" width="70" height="30" as="geometry">
            <mxRectangle width="70" height="30" as="alternateBounds" />
          </mxGeometry>
        </mxCell>
        <mxCell id="lesJdgjOnKgALjX5jG1v-107" value="" style="shape=tableRow;horizontal=0;startSize=0;swimlaneHead=0;swimlaneBody=0;fillColor=none;collapsible=0;dropTarget=0;points=[[0,0.5],[1,0.5]];portConstraint=eastwest;top=0;left=0;right=0;bottom=0;html=1;" parent="lesJdgjOnKgALjX5jG1v-103" vertex="1">
          <mxGeometry y="60" width="130" height="30" as="geometry" />
        </mxCell>
        <mxCell id="lesJdgjOnKgALjX5jG1v-108" value="" style="shape=partialRectangle;connectable=0;fillColor=none;top=0;left=0;bottom=0;right=0;editable=1;overflow=hidden;html=1;whiteSpace=wrap;" parent="lesJdgjOnKgALjX5jG1v-107" vertex="1">
          <mxGeometry width="60" height="30" as="geometry">
            <mxRectangle width="60" height="30" as="alternateBounds" />
          </mxGeometry>
        </mxCell>
        <mxCell id="lesJdgjOnKgALjX5jG1v-109" value="Name" style="shape=partialRectangle;connectable=0;fillColor=none;top=0;left=0;bottom=0;right=0;align=left;spacingLeft=6;overflow=hidden;html=1;whiteSpace=wrap;" parent="lesJdgjOnKgALjX5jG1v-107" vertex="1">
          <mxGeometry x="60" width="70" height="30" as="geometry">
            <mxRectangle width="70" height="30" as="alternateBounds" />
          </mxGeometry>
        </mxCell>
        <mxCell id="lesJdgjOnKgALjX5jG1v-110" value="" style="shape=tableRow;horizontal=0;startSize=0;swimlaneHead=0;swimlaneBody=0;fillColor=none;collapsible=0;dropTarget=0;points=[[0,0.5],[1,0.5]];portConstraint=eastwest;top=0;left=0;right=0;bottom=0;html=1;" parent="lesJdgjOnKgALjX5jG1v-103" vertex="1">
          <mxGeometry y="90" width="130" height="30" as="geometry" />
        </mxCell>
        <mxCell id="lesJdgjOnKgALjX5jG1v-111" value="" style="shape=partialRectangle;connectable=0;fillColor=none;top=0;left=0;bottom=0;right=0;editable=1;overflow=hidden;html=1;whiteSpace=wrap;" parent="lesJdgjOnKgALjX5jG1v-110" vertex="1">
          <mxGeometry width="60" height="30" as="geometry">
            <mxRectangle width="60" height="30" as="alternateBounds" />
          </mxGeometry>
        </mxCell>
        <mxCell id="lesJdgjOnKgALjX5jG1v-112" value="Phone" style="shape=partialRectangle;connectable=0;fillColor=none;top=0;left=0;bottom=0;right=0;align=left;spacingLeft=6;overflow=hidden;html=1;whiteSpace=wrap;" parent="lesJdgjOnKgALjX5jG1v-110" vertex="1">
          <mxGeometry x="60" width="70" height="30" as="geometry">
            <mxRectangle width="70" height="30" as="alternateBounds" />
          </mxGeometry>
        </mxCell>
        <mxCell id="lesJdgjOnKgALjX5jG1v-113" value="" style="shape=tableRow;horizontal=0;startSize=0;swimlaneHead=0;swimlaneBody=0;fillColor=none;collapsible=0;dropTarget=0;points=[[0,0.5],[1,0.5]];portConstraint=eastwest;top=0;left=0;right=0;bottom=0;" parent="lesJdgjOnKgALjX5jG1v-103" vertex="1">
          <mxGeometry y="120" width="130" height="30" as="geometry" />
        </mxCell>
        <mxCell id="lesJdgjOnKgALjX5jG1v-114" value="" style="shape=partialRectangle;connectable=0;fillColor=none;top=0;left=0;bottom=0;right=0;editable=1;overflow=hidden;" parent="lesJdgjOnKgALjX5jG1v-113" vertex="1">
          <mxGeometry width="60" height="30" as="geometry">
            <mxRectangle width="60" height="30" as="alternateBounds" />
          </mxGeometry>
        </mxCell>
        <mxCell id="lesJdgjOnKgALjX5jG1v-115" value="Address" style="shape=partialRectangle;connectable=0;fillColor=none;top=0;left=0;bottom=0;right=0;align=left;spacingLeft=6;overflow=hidden;" parent="lesJdgjOnKgALjX5jG1v-113" vertex="1">
          <mxGeometry x="60" width="70" height="30" as="geometry">
            <mxRectangle width="70" height="30" as="alternateBounds" />
          </mxGeometry>
        </mxCell>
        <mxCell id="lesJdgjOnKgALjX5jG1v-116" value="" style="shape=tableRow;horizontal=0;startSize=0;swimlaneHead=0;swimlaneBody=0;fillColor=none;collapsible=0;dropTarget=0;points=[[0,0.5],[1,0.5]];portConstraint=eastwest;top=0;left=0;right=0;bottom=0;" parent="lesJdgjOnKgALjX5jG1v-103" vertex="1">
          <mxGeometry y="150" width="130" height="30" as="geometry" />
        </mxCell>
        <mxCell id="lesJdgjOnKgALjX5jG1v-117" value="" style="shape=partialRectangle;connectable=0;fillColor=none;top=0;left=0;bottom=0;right=0;editable=1;overflow=hidden;" parent="lesJdgjOnKgALjX5jG1v-116" vertex="1">
          <mxGeometry width="60" height="30" as="geometry">
            <mxRectangle width="60" height="30" as="alternateBounds" />
          </mxGeometry>
        </mxCell>
        <mxCell id="lesJdgjOnKgALjX5jG1v-118" value="Email" style="shape=partialRectangle;connectable=0;fillColor=none;top=0;left=0;bottom=0;right=0;align=left;spacingLeft=6;overflow=hidden;" parent="lesJdgjOnKgALjX5jG1v-116" vertex="1">
          <mxGeometry x="60" width="70" height="30" as="geometry">
            <mxRectangle width="70" height="30" as="alternateBounds" />
          </mxGeometry>
        </mxCell>
        <mxCell id="lesJdgjOnKgALjX5jG1v-119" value="Dishes" style="shape=table;startSize=30;container=1;collapsible=1;childLayout=tableLayout;fixedRows=1;rowLines=0;fontStyle=1;align=center;resizeLast=1;html=1;whiteSpace=wrap;" parent="1" vertex="1">
          <mxGeometry x="571" y="585" width="141" height="210" as="geometry" />
        </mxCell>
        <mxCell id="lesJdgjOnKgALjX5jG1v-120" value="" style="shape=tableRow;horizontal=0;startSize=0;swimlaneHead=0;swimlaneBody=0;fillColor=none;collapsible=0;dropTarget=0;points=[[0,0.5],[1,0.5]];portConstraint=eastwest;top=0;left=0;right=0;bottom=1;" parent="lesJdgjOnKgALjX5jG1v-119" vertex="1">
          <mxGeometry y="30" width="141" height="30" as="geometry" />
        </mxCell>
        <mxCell id="lesJdgjOnKgALjX5jG1v-121" value="PK" style="shape=partialRectangle;connectable=0;fillColor=none;top=0;left=0;bottom=0;right=0;fontStyle=1;overflow=hidden;whiteSpace=wrap;html=1;" parent="lesJdgjOnKgALjX5jG1v-120" vertex="1">
          <mxGeometry width="57" height="30" as="geometry">
            <mxRectangle width="57" height="30" as="alternateBounds" />
          </mxGeometry>
        </mxCell>
        <mxCell id="lesJdgjOnKgALjX5jG1v-122" value="ID" style="shape=partialRectangle;connectable=0;fillColor=none;top=0;left=0;bottom=0;right=0;align=left;spacingLeft=6;fontStyle=5;overflow=hidden;whiteSpace=wrap;html=1;" parent="lesJdgjOnKgALjX5jG1v-120" vertex="1">
          <mxGeometry x="57" width="84" height="30" as="geometry">
            <mxRectangle width="84" height="30" as="alternateBounds" />
          </mxGeometry>
        </mxCell>
        <mxCell id="lesJdgjOnKgALjX5jG1v-123" value="" style="shape=tableRow;horizontal=0;startSize=0;swimlaneHead=0;swimlaneBody=0;fillColor=none;collapsible=0;dropTarget=0;points=[[0,0.5],[1,0.5]];portConstraint=eastwest;top=0;left=0;right=0;bottom=0;html=1;" parent="lesJdgjOnKgALjX5jG1v-119" vertex="1">
          <mxGeometry y="60" width="141" height="30" as="geometry" />
        </mxCell>
        <mxCell id="lesJdgjOnKgALjX5jG1v-124" value="" style="shape=partialRectangle;connectable=0;fillColor=none;top=0;left=0;bottom=0;right=0;editable=1;overflow=hidden;html=1;whiteSpace=wrap;" parent="lesJdgjOnKgALjX5jG1v-123" vertex="1">
          <mxGeometry width="57" height="30" as="geometry">
            <mxRectangle width="57" height="30" as="alternateBounds" />
          </mxGeometry>
        </mxCell>
        <mxCell id="lesJdgjOnKgALjX5jG1v-125" value="Name" style="shape=partialRectangle;connectable=0;fillColor=none;top=0;left=0;bottom=0;right=0;align=left;spacingLeft=6;overflow=hidden;html=1;whiteSpace=wrap;" parent="lesJdgjOnKgALjX5jG1v-123" vertex="1">
          <mxGeometry x="57" width="84" height="30" as="geometry">
            <mxRectangle width="84" height="30" as="alternateBounds" />
          </mxGeometry>
        </mxCell>
        <mxCell id="lesJdgjOnKgALjX5jG1v-208" value="" style="shape=tableRow;horizontal=0;startSize=0;swimlaneHead=0;swimlaneBody=0;fillColor=none;collapsible=0;dropTarget=0;points=[[0,0.5],[1,0.5]];portConstraint=eastwest;top=0;left=0;right=0;bottom=0;" parent="lesJdgjOnKgALjX5jG1v-119" vertex="1">
          <mxGeometry y="90" width="141" height="30" as="geometry" />
        </mxCell>
        <mxCell id="lesJdgjOnKgALjX5jG1v-209" value="FK" style="shape=partialRectangle;connectable=0;fillColor=none;top=0;left=0;bottom=0;right=0;fontStyle=0;overflow=hidden;whiteSpace=wrap;html=1;" parent="lesJdgjOnKgALjX5jG1v-208" vertex="1">
          <mxGeometry width="57" height="30" as="geometry">
            <mxRectangle width="57" height="30" as="alternateBounds" />
          </mxGeometry>
        </mxCell>
        <mxCell id="lesJdgjOnKgALjX5jG1v-210" value="SupplierID" style="shape=partialRectangle;connectable=0;fillColor=none;top=0;left=0;bottom=0;right=0;align=left;spacingLeft=6;fontStyle=0;overflow=hidden;whiteSpace=wrap;html=1;" parent="lesJdgjOnKgALjX5jG1v-208" vertex="1">
          <mxGeometry x="57" width="84" height="30" as="geometry">
            <mxRectangle width="84" height="30" as="alternateBounds" />
          </mxGeometry>
        </mxCell>
        <mxCell id="lesJdgjOnKgALjX5jG1v-205" value="" style="shape=tableRow;horizontal=0;startSize=0;swimlaneHead=0;swimlaneBody=0;fillColor=none;collapsible=0;dropTarget=0;points=[[0,0.5],[1,0.5]];portConstraint=eastwest;top=0;left=0;right=0;bottom=0;" parent="lesJdgjOnKgALjX5jG1v-119" vertex="1">
          <mxGeometry y="120" width="141" height="30" as="geometry" />
        </mxCell>
        <mxCell id="lesJdgjOnKgALjX5jG1v-206" value="FK" style="shape=partialRectangle;connectable=0;fillColor=none;top=0;left=0;bottom=0;right=0;fontStyle=0;overflow=hidden;whiteSpace=wrap;html=1;" parent="lesJdgjOnKgALjX5jG1v-205" vertex="1">
          <mxGeometry width="57" height="30" as="geometry">
            <mxRectangle width="57" height="30" as="alternateBounds" />
          </mxGeometry>
        </mxCell>
        <mxCell id="lesJdgjOnKgALjX5jG1v-207" value="CategoryID" style="shape=partialRectangle;connectable=0;fillColor=none;top=0;left=0;bottom=0;right=0;align=left;spacingLeft=6;fontStyle=0;overflow=hidden;whiteSpace=wrap;html=1;" parent="lesJdgjOnKgALjX5jG1v-205" vertex="1">
          <mxGeometry x="57" width="84" height="30" as="geometry">
            <mxRectangle width="84" height="30" as="alternateBounds" />
          </mxGeometry>
        </mxCell>
        <mxCell id="lesJdgjOnKgALjX5jG1v-126" value="" style="shape=tableRow;horizontal=0;startSize=0;swimlaneHead=0;swimlaneBody=0;fillColor=none;collapsible=0;dropTarget=0;points=[[0,0.5],[1,0.5]];portConstraint=eastwest;top=0;left=0;right=0;bottom=0;html=1;" parent="lesJdgjOnKgALjX5jG1v-119" vertex="1">
          <mxGeometry y="150" width="141" height="30" as="geometry" />
        </mxCell>
        <mxCell id="lesJdgjOnKgALjX5jG1v-127" value="" style="shape=partialRectangle;connectable=0;fillColor=none;top=0;left=0;bottom=0;right=0;editable=1;overflow=hidden;html=1;whiteSpace=wrap;" parent="lesJdgjOnKgALjX5jG1v-126" vertex="1">
          <mxGeometry width="57" height="30" as="geometry">
            <mxRectangle width="57" height="30" as="alternateBounds" />
          </mxGeometry>
        </mxCell>
        <mxCell id="lesJdgjOnKgALjX5jG1v-128" value="Description" style="shape=partialRectangle;connectable=0;fillColor=none;top=0;left=0;bottom=0;right=0;align=left;spacingLeft=6;overflow=hidden;html=1;whiteSpace=wrap;" parent="lesJdgjOnKgALjX5jG1v-126" vertex="1">
          <mxGeometry x="57" width="84" height="30" as="geometry">
            <mxRectangle width="84" height="30" as="alternateBounds" />
          </mxGeometry>
        </mxCell>
        <mxCell id="lesJdgjOnKgALjX5jG1v-129" value="" style="shape=tableRow;horizontal=0;startSize=0;swimlaneHead=0;swimlaneBody=0;fillColor=none;collapsible=0;dropTarget=0;points=[[0,0.5],[1,0.5]];portConstraint=eastwest;top=0;left=0;right=0;bottom=0;" parent="lesJdgjOnKgALjX5jG1v-119" vertex="1">
          <mxGeometry y="180" width="141" height="30" as="geometry" />
        </mxCell>
        <mxCell id="lesJdgjOnKgALjX5jG1v-130" value="" style="shape=partialRectangle;connectable=0;fillColor=none;top=0;left=0;bottom=0;right=0;editable=1;overflow=hidden;" parent="lesJdgjOnKgALjX5jG1v-129" vertex="1">
          <mxGeometry width="57" height="30" as="geometry">
            <mxRectangle width="57" height="30" as="alternateBounds" />
          </mxGeometry>
        </mxCell>
        <mxCell id="lesJdgjOnKgALjX5jG1v-131" value="Price" style="shape=partialRectangle;connectable=0;fillColor=none;top=0;left=0;bottom=0;right=0;align=left;spacingLeft=6;overflow=hidden;" parent="lesJdgjOnKgALjX5jG1v-129" vertex="1">
          <mxGeometry x="57" width="84" height="30" as="geometry">
            <mxRectangle width="84" height="30" as="alternateBounds" />
          </mxGeometry>
        </mxCell>
        <mxCell id="lesJdgjOnKgALjX5jG1v-144" value="Orders" style="shape=table;startSize=30;container=1;collapsible=1;childLayout=tableLayout;fixedRows=1;rowLines=0;fontStyle=1;align=center;resizeLast=1;html=1;whiteSpace=wrap;" parent="1" vertex="1">
          <mxGeometry x="570" y="280" width="141" height="180" as="geometry" />
        </mxCell>
        <mxCell id="lesJdgjOnKgALjX5jG1v-145" value="" style="shape=tableRow;horizontal=0;startSize=0;swimlaneHead=0;swimlaneBody=0;fillColor=none;collapsible=0;dropTarget=0;points=[[0,0.5],[1,0.5]];portConstraint=eastwest;top=0;left=0;right=0;bottom=1;" parent="lesJdgjOnKgALjX5jG1v-144" vertex="1">
          <mxGeometry y="30" width="141" height="30" as="geometry" />
        </mxCell>
        <mxCell id="lesJdgjOnKgALjX5jG1v-146" value="PK" style="shape=partialRectangle;connectable=0;fillColor=none;top=0;left=0;bottom=0;right=0;fontStyle=1;overflow=hidden;whiteSpace=wrap;html=1;" parent="lesJdgjOnKgALjX5jG1v-145" vertex="1">
          <mxGeometry width="60" height="30" as="geometry">
            <mxRectangle width="60" height="30" as="alternateBounds" />
          </mxGeometry>
        </mxCell>
        <mxCell id="lesJdgjOnKgALjX5jG1v-147" value="ID" style="shape=partialRectangle;connectable=0;fillColor=none;top=0;left=0;bottom=0;right=0;align=left;spacingLeft=6;fontStyle=5;overflow=hidden;whiteSpace=wrap;html=1;" parent="lesJdgjOnKgALjX5jG1v-145" vertex="1">
          <mxGeometry x="60" width="81" height="30" as="geometry">
            <mxRectangle width="81" height="30" as="alternateBounds" />
          </mxGeometry>
        </mxCell>
        <mxCell id="lesJdgjOnKgALjX5jG1v-214" value="" style="shape=tableRow;horizontal=0;startSize=0;swimlaneHead=0;swimlaneBody=0;fillColor=none;collapsible=0;dropTarget=0;points=[[0,0.5],[1,0.5]];portConstraint=eastwest;top=0;left=0;right=0;bottom=0;" parent="lesJdgjOnKgALjX5jG1v-144" vertex="1">
          <mxGeometry y="60" width="141" height="30" as="geometry" />
        </mxCell>
        <mxCell id="lesJdgjOnKgALjX5jG1v-215" value="FK" style="shape=partialRectangle;connectable=0;fillColor=none;top=0;left=0;bottom=0;right=0;fontStyle=0;overflow=hidden;whiteSpace=wrap;html=1;" parent="lesJdgjOnKgALjX5jG1v-214" vertex="1">
          <mxGeometry width="60" height="30" as="geometry">
            <mxRectangle width="60" height="30" as="alternateBounds" />
          </mxGeometry>
        </mxCell>
        <mxCell id="lesJdgjOnKgALjX5jG1v-216" value="CustomerID" style="shape=partialRectangle;connectable=0;fillColor=none;top=0;left=0;bottom=0;right=0;align=left;spacingLeft=6;fontStyle=0;overflow=hidden;whiteSpace=wrap;html=1;" parent="lesJdgjOnKgALjX5jG1v-214" vertex="1">
          <mxGeometry x="60" width="81" height="30" as="geometry">
            <mxRectangle width="81" height="30" as="alternateBounds" />
          </mxGeometry>
        </mxCell>
        <mxCell id="lesJdgjOnKgALjX5jG1v-154" value="" style="shape=tableRow;horizontal=0;startSize=0;swimlaneHead=0;swimlaneBody=0;fillColor=none;collapsible=0;dropTarget=0;points=[[0,0.5],[1,0.5]];portConstraint=eastwest;top=0;left=0;right=0;bottom=0;html=1;" parent="lesJdgjOnKgALjX5jG1v-144" vertex="1">
          <mxGeometry y="90" width="141" height="30" as="geometry" />
        </mxCell>
        <mxCell id="lesJdgjOnKgALjX5jG1v-155" value="" style="shape=partialRectangle;connectable=0;fillColor=none;top=0;left=0;bottom=0;right=0;editable=1;overflow=hidden;html=1;whiteSpace=wrap;" parent="lesJdgjOnKgALjX5jG1v-154" vertex="1">
          <mxGeometry width="60" height="30" as="geometry">
            <mxRectangle width="60" height="30" as="alternateBounds" />
          </mxGeometry>
        </mxCell>
        <mxCell id="lesJdgjOnKgALjX5jG1v-156" value="OrderDate" style="shape=partialRectangle;connectable=0;fillColor=none;top=0;left=0;bottom=0;right=0;align=left;spacingLeft=6;overflow=hidden;html=1;whiteSpace=wrap;" parent="lesJdgjOnKgALjX5jG1v-154" vertex="1">
          <mxGeometry x="60" width="81" height="30" as="geometry">
            <mxRectangle width="81" height="30" as="alternateBounds" />
          </mxGeometry>
        </mxCell>
        <mxCell id="lesJdgjOnKgALjX5jG1v-157" value="" style="shape=tableRow;horizontal=0;startSize=0;swimlaneHead=0;swimlaneBody=0;fillColor=none;collapsible=0;dropTarget=0;points=[[0,0.5],[1,0.5]];portConstraint=eastwest;top=0;left=0;right=0;bottom=0;html=1;" parent="lesJdgjOnKgALjX5jG1v-144" vertex="1">
          <mxGeometry y="120" width="141" height="30" as="geometry" />
        </mxCell>
        <mxCell id="lesJdgjOnKgALjX5jG1v-158" value="" style="shape=partialRectangle;connectable=0;fillColor=none;top=0;left=0;bottom=0;right=0;editable=1;overflow=hidden;html=1;whiteSpace=wrap;" parent="lesJdgjOnKgALjX5jG1v-157" vertex="1">
          <mxGeometry width="60" height="30" as="geometry">
            <mxRectangle width="60" height="30" as="alternateBounds" />
          </mxGeometry>
        </mxCell>
        <mxCell id="lesJdgjOnKgALjX5jG1v-159" value="TotalAmount" style="shape=partialRectangle;connectable=0;fillColor=none;top=0;left=0;bottom=0;right=0;align=left;spacingLeft=6;overflow=hidden;html=1;whiteSpace=wrap;" parent="lesJdgjOnKgALjX5jG1v-157" vertex="1">
          <mxGeometry x="60" width="81" height="30" as="geometry">
            <mxRectangle width="81" height="30" as="alternateBounds" />
          </mxGeometry>
        </mxCell>
        <mxCell id="lesJdgjOnKgALjX5jG1v-160" value="" style="shape=tableRow;horizontal=0;startSize=0;swimlaneHead=0;swimlaneBody=0;fillColor=none;collapsible=0;dropTarget=0;points=[[0,0.5],[1,0.5]];portConstraint=eastwest;top=0;left=0;right=0;bottom=0;" parent="lesJdgjOnKgALjX5jG1v-144" vertex="1">
          <mxGeometry y="150" width="141" height="30" as="geometry" />
        </mxCell>
        <mxCell id="lesJdgjOnKgALjX5jG1v-161" value="" style="shape=partialRectangle;connectable=0;fillColor=none;top=0;left=0;bottom=0;right=0;editable=1;overflow=hidden;" parent="lesJdgjOnKgALjX5jG1v-160" vertex="1">
          <mxGeometry width="60" height="30" as="geometry">
            <mxRectangle width="60" height="30" as="alternateBounds" />
          </mxGeometry>
        </mxCell>
        <mxCell id="lesJdgjOnKgALjX5jG1v-162" value="Status" style="shape=partialRectangle;connectable=0;fillColor=none;top=0;left=0;bottom=0;right=0;align=left;spacingLeft=6;overflow=hidden;" parent="lesJdgjOnKgALjX5jG1v-160" vertex="1">
          <mxGeometry x="60" width="81" height="30" as="geometry">
            <mxRectangle width="81" height="30" as="alternateBounds" />
          </mxGeometry>
        </mxCell>
        <mxCell id="lesJdgjOnKgALjX5jG1v-163" value="OrderDetails" style="shape=table;startSize=30;container=1;collapsible=1;childLayout=tableLayout;fixedRows=1;rowLines=0;fontStyle=1;align=center;resizeLast=1;html=1;whiteSpace=wrap;" parent="1" vertex="1">
          <mxGeometry x="299" y="190" width="141" height="180" as="geometry" />
        </mxCell>
        <mxCell id="lesJdgjOnKgALjX5jG1v-164" value="" style="shape=tableRow;horizontal=0;startSize=0;swimlaneHead=0;swimlaneBody=0;fillColor=none;collapsible=0;dropTarget=0;points=[[0,0.5],[1,0.5]];portConstraint=eastwest;top=0;left=0;right=0;bottom=1;" parent="lesJdgjOnKgALjX5jG1v-163" vertex="1">
          <mxGeometry y="30" width="141" height="30" as="geometry" />
        </mxCell>
        <mxCell id="lesJdgjOnKgALjX5jG1v-165" value="PK" style="shape=partialRectangle;connectable=0;fillColor=none;top=0;left=0;bottom=0;right=0;fontStyle=1;overflow=hidden;whiteSpace=wrap;html=1;" parent="lesJdgjOnKgALjX5jG1v-164" vertex="1">
          <mxGeometry width="60" height="30" as="geometry">
            <mxRectangle width="60" height="30" as="alternateBounds" />
          </mxGeometry>
        </mxCell>
        <mxCell id="lesJdgjOnKgALjX5jG1v-166" value="ID" style="shape=partialRectangle;connectable=0;fillColor=none;top=0;left=0;bottom=0;right=0;align=left;spacingLeft=6;fontStyle=5;overflow=hidden;whiteSpace=wrap;html=1;" parent="lesJdgjOnKgALjX5jG1v-164" vertex="1">
          <mxGeometry x="60" width="81" height="30" as="geometry">
            <mxRectangle width="81" height="30" as="alternateBounds" />
          </mxGeometry>
        </mxCell>
        <mxCell id="lesJdgjOnKgALjX5jG1v-217" value="" style="shape=tableRow;horizontal=0;startSize=0;swimlaneHead=0;swimlaneBody=0;fillColor=none;collapsible=0;dropTarget=0;points=[[0,0.5],[1,0.5]];portConstraint=eastwest;top=0;left=0;right=0;bottom=0;" parent="lesJdgjOnKgALjX5jG1v-163" vertex="1">
          <mxGeometry y="60" width="141" height="30" as="geometry" />
        </mxCell>
        <mxCell id="lesJdgjOnKgALjX5jG1v-218" value="FK" style="shape=partialRectangle;connectable=0;fillColor=none;top=0;left=0;bottom=0;right=0;fontStyle=0;overflow=hidden;whiteSpace=wrap;html=1;" parent="lesJdgjOnKgALjX5jG1v-217" vertex="1">
          <mxGeometry width="60" height="30" as="geometry">
            <mxRectangle width="60" height="30" as="alternateBounds" />
          </mxGeometry>
        </mxCell>
        <mxCell id="lesJdgjOnKgALjX5jG1v-219" value="OrderID" style="shape=partialRectangle;connectable=0;fillColor=none;top=0;left=0;bottom=0;right=0;align=left;spacingLeft=6;fontStyle=0;overflow=hidden;whiteSpace=wrap;html=1;" parent="lesJdgjOnKgALjX5jG1v-217" vertex="1">
          <mxGeometry x="60" width="81" height="30" as="geometry">
            <mxRectangle width="81" height="30" as="alternateBounds" />
          </mxGeometry>
        </mxCell>
        <mxCell id="lesJdgjOnKgALjX5jG1v-220" value="" style="shape=tableRow;horizontal=0;startSize=0;swimlaneHead=0;swimlaneBody=0;fillColor=none;collapsible=0;dropTarget=0;points=[[0,0.5],[1,0.5]];portConstraint=eastwest;top=0;left=0;right=0;bottom=0;" parent="lesJdgjOnKgALjX5jG1v-163" vertex="1">
          <mxGeometry y="90" width="141" height="30" as="geometry" />
        </mxCell>
        <mxCell id="lesJdgjOnKgALjX5jG1v-221" value="FK" style="shape=partialRectangle;connectable=0;fillColor=none;top=0;left=0;bottom=0;right=0;fontStyle=0;overflow=hidden;whiteSpace=wrap;html=1;" parent="lesJdgjOnKgALjX5jG1v-220" vertex="1">
          <mxGeometry width="60" height="30" as="geometry">
            <mxRectangle width="60" height="30" as="alternateBounds" />
          </mxGeometry>
        </mxCell>
        <mxCell id="lesJdgjOnKgALjX5jG1v-222" value="DishID" style="shape=partialRectangle;connectable=0;fillColor=none;top=0;left=0;bottom=0;right=0;align=left;spacingLeft=6;fontStyle=0;overflow=hidden;whiteSpace=wrap;html=1;" parent="lesJdgjOnKgALjX5jG1v-220" vertex="1">
          <mxGeometry x="60" width="81" height="30" as="geometry">
            <mxRectangle width="81" height="30" as="alternateBounds" />
          </mxGeometry>
        </mxCell>
        <mxCell id="lesJdgjOnKgALjX5jG1v-173" value="" style="shape=tableRow;horizontal=0;startSize=0;swimlaneHead=0;swimlaneBody=0;fillColor=none;collapsible=0;dropTarget=0;points=[[0,0.5],[1,0.5]];portConstraint=eastwest;top=0;left=0;right=0;bottom=0;html=1;" parent="lesJdgjOnKgALjX5jG1v-163" vertex="1">
          <mxGeometry y="120" width="141" height="30" as="geometry" />
        </mxCell>
        <mxCell id="lesJdgjOnKgALjX5jG1v-174" value="" style="shape=partialRectangle;connectable=0;fillColor=none;top=0;left=0;bottom=0;right=0;editable=1;overflow=hidden;html=1;whiteSpace=wrap;" parent="lesJdgjOnKgALjX5jG1v-173" vertex="1">
          <mxGeometry width="60" height="30" as="geometry">
            <mxRectangle width="60" height="30" as="alternateBounds" />
          </mxGeometry>
        </mxCell>
        <mxCell id="lesJdgjOnKgALjX5jG1v-175" value="Quantity" style="shape=partialRectangle;connectable=0;fillColor=none;top=0;left=0;bottom=0;right=0;align=left;spacingLeft=6;overflow=hidden;html=1;whiteSpace=wrap;" parent="lesJdgjOnKgALjX5jG1v-173" vertex="1">
          <mxGeometry x="60" width="81" height="30" as="geometry">
            <mxRectangle width="81" height="30" as="alternateBounds" />
          </mxGeometry>
        </mxCell>
        <mxCell id="lesJdgjOnKgALjX5jG1v-176" value="" style="shape=tableRow;horizontal=0;startSize=0;swimlaneHead=0;swimlaneBody=0;fillColor=none;collapsible=0;dropTarget=0;points=[[0,0.5],[1,0.5]];portConstraint=eastwest;top=0;left=0;right=0;bottom=0;html=1;" parent="lesJdgjOnKgALjX5jG1v-163" vertex="1">
          <mxGeometry y="150" width="141" height="30" as="geometry" />
        </mxCell>
        <mxCell id="lesJdgjOnKgALjX5jG1v-177" value="" style="shape=partialRectangle;connectable=0;fillColor=none;top=0;left=0;bottom=0;right=0;editable=1;overflow=hidden;html=1;whiteSpace=wrap;" parent="lesJdgjOnKgALjX5jG1v-176" vertex="1">
          <mxGeometry width="60" height="30" as="geometry">
            <mxRectangle width="60" height="30" as="alternateBounds" />
          </mxGeometry>
        </mxCell>
        <mxCell id="lesJdgjOnKgALjX5jG1v-178" value="PriceAtTime" style="shape=partialRectangle;connectable=0;fillColor=none;top=0;left=0;bottom=0;right=0;align=left;spacingLeft=6;overflow=hidden;html=1;whiteSpace=wrap;" parent="lesJdgjOnKgALjX5jG1v-176" vertex="1">
          <mxGeometry x="60" width="81" height="30" as="geometry">
            <mxRectangle width="81" height="30" as="alternateBounds" />
          </mxGeometry>
        </mxCell>
        <mxCell id="lesJdgjOnKgALjX5jG1v-182" value="Payments" style="shape=table;startSize=30;container=1;collapsible=1;childLayout=tableLayout;fixedRows=1;rowLines=0;fontStyle=1;align=center;resizeLast=1;html=1;whiteSpace=wrap;" parent="1" vertex="1">
          <mxGeometry x="870" y="300" width="170" height="180" as="geometry" />
        </mxCell>
        <mxCell id="lesJdgjOnKgALjX5jG1v-183" value="" style="shape=tableRow;horizontal=0;startSize=0;swimlaneHead=0;swimlaneBody=0;fillColor=none;collapsible=0;dropTarget=0;points=[[0,0.5],[1,0.5]];portConstraint=eastwest;top=0;left=0;right=0;bottom=1;" parent="lesJdgjOnKgALjX5jG1v-182" vertex="1">
          <mxGeometry y="30" width="170" height="30" as="geometry" />
        </mxCell>
        <mxCell id="lesJdgjOnKgALjX5jG1v-184" value="PK" style="shape=partialRectangle;connectable=0;fillColor=none;top=0;left=0;bottom=0;right=0;fontStyle=1;overflow=hidden;whiteSpace=wrap;html=1;" parent="lesJdgjOnKgALjX5jG1v-183" vertex="1">
          <mxGeometry width="60" height="30" as="geometry">
            <mxRectangle width="60" height="30" as="alternateBounds" />
          </mxGeometry>
        </mxCell>
        <mxCell id="lesJdgjOnKgALjX5jG1v-185" value="ID" style="shape=partialRectangle;connectable=0;fillColor=none;top=0;left=0;bottom=0;right=0;align=left;spacingLeft=6;fontStyle=5;overflow=hidden;whiteSpace=wrap;html=1;" parent="lesJdgjOnKgALjX5jG1v-183" vertex="1">
          <mxGeometry x="60" width="110" height="30" as="geometry">
            <mxRectangle width="110" height="30" as="alternateBounds" />
          </mxGeometry>
        </mxCell>
        <mxCell id="lesJdgjOnKgALjX5jG1v-192" value="" style="shape=tableRow;horizontal=0;startSize=0;swimlaneHead=0;swimlaneBody=0;fillColor=none;collapsible=0;dropTarget=0;points=[[0,0.5],[1,0.5]];portConstraint=eastwest;top=0;left=0;right=0;bottom=0;html=1;" parent="lesJdgjOnKgALjX5jG1v-182" vertex="1">
          <mxGeometry y="60" width="170" height="30" as="geometry" />
        </mxCell>
        <mxCell id="lesJdgjOnKgALjX5jG1v-193" value="" style="shape=partialRectangle;connectable=0;fillColor=none;top=0;left=0;bottom=0;right=0;editable=1;overflow=hidden;html=1;whiteSpace=wrap;" parent="lesJdgjOnKgALjX5jG1v-192" vertex="1">
          <mxGeometry width="60" height="30" as="geometry">
            <mxRectangle width="60" height="30" as="alternateBounds" />
          </mxGeometry>
        </mxCell>
        <mxCell id="lesJdgjOnKgALjX5jG1v-194" value="PaymentMethod" style="shape=partialRectangle;connectable=0;fillColor=none;top=0;left=0;bottom=0;right=0;align=left;spacingLeft=6;overflow=hidden;html=1;whiteSpace=wrap;" parent="lesJdgjOnKgALjX5jG1v-192" vertex="1">
          <mxGeometry x="60" width="110" height="30" as="geometry">
            <mxRectangle width="110" height="30" as="alternateBounds" />
          </mxGeometry>
        </mxCell>
        <mxCell id="lesJdgjOnKgALjX5jG1v-223" value="" style="shape=tableRow;horizontal=0;startSize=0;swimlaneHead=0;swimlaneBody=0;fillColor=none;collapsible=0;dropTarget=0;points=[[0,0.5],[1,0.5]];portConstraint=eastwest;top=0;left=0;right=0;bottom=0;" parent="lesJdgjOnKgALjX5jG1v-182" vertex="1">
          <mxGeometry y="90" width="170" height="30" as="geometry" />
        </mxCell>
        <mxCell id="lesJdgjOnKgALjX5jG1v-224" value="FK" style="shape=partialRectangle;connectable=0;fillColor=none;top=0;left=0;bottom=0;right=0;fontStyle=0;overflow=hidden;whiteSpace=wrap;html=1;" parent="lesJdgjOnKgALjX5jG1v-223" vertex="1">
          <mxGeometry width="60" height="30" as="geometry">
            <mxRectangle width="60" height="30" as="alternateBounds" />
          </mxGeometry>
        </mxCell>
        <mxCell id="lesJdgjOnKgALjX5jG1v-225" value="OrderID" style="shape=partialRectangle;connectable=0;fillColor=none;top=0;left=0;bottom=0;right=0;align=left;spacingLeft=6;fontStyle=0;overflow=hidden;whiteSpace=wrap;html=1;" parent="lesJdgjOnKgALjX5jG1v-223" vertex="1">
          <mxGeometry x="60" width="110" height="30" as="geometry">
            <mxRectangle width="110" height="30" as="alternateBounds" />
          </mxGeometry>
        </mxCell>
        <mxCell id="lesJdgjOnKgALjX5jG1v-202" value="" style="shape=tableRow;horizontal=0;startSize=0;swimlaneHead=0;swimlaneBody=0;fillColor=none;collapsible=0;dropTarget=0;points=[[0,0.5],[1,0.5]];portConstraint=eastwest;top=0;left=0;right=0;bottom=0;" parent="lesJdgjOnKgALjX5jG1v-182" vertex="1">
          <mxGeometry y="120" width="170" height="30" as="geometry" />
        </mxCell>
        <mxCell id="lesJdgjOnKgALjX5jG1v-203" value="" style="shape=partialRectangle;connectable=0;fillColor=none;top=0;left=0;bottom=0;right=0;editable=1;overflow=hidden;" parent="lesJdgjOnKgALjX5jG1v-202" vertex="1">
          <mxGeometry width="60" height="30" as="geometry">
            <mxRectangle width="60" height="30" as="alternateBounds" />
          </mxGeometry>
        </mxCell>
        <mxCell id="lesJdgjOnKgALjX5jG1v-204" value="PaymentDate" style="shape=partialRectangle;connectable=0;fillColor=none;top=0;left=0;bottom=0;right=0;align=left;spacingLeft=6;overflow=hidden;" parent="lesJdgjOnKgALjX5jG1v-202" vertex="1">
          <mxGeometry x="60" width="110" height="30" as="geometry">
            <mxRectangle width="110" height="30" as="alternateBounds" />
          </mxGeometry>
        </mxCell>
        <mxCell id="lesJdgjOnKgALjX5jG1v-195" value="" style="shape=tableRow;horizontal=0;startSize=0;swimlaneHead=0;swimlaneBody=0;fillColor=none;collapsible=0;dropTarget=0;points=[[0,0.5],[1,0.5]];portConstraint=eastwest;top=0;left=0;right=0;bottom=0;html=1;" parent="lesJdgjOnKgALjX5jG1v-182" vertex="1">
          <mxGeometry y="150" width="170" height="30" as="geometry" />
        </mxCell>
        <mxCell id="lesJdgjOnKgALjX5jG1v-196" value="" style="shape=partialRectangle;connectable=0;fillColor=none;top=0;left=0;bottom=0;right=0;editable=1;overflow=hidden;html=1;whiteSpace=wrap;" parent="lesJdgjOnKgALjX5jG1v-195" vertex="1">
          <mxGeometry width="60" height="30" as="geometry">
            <mxRectangle width="60" height="30" as="alternateBounds" />
          </mxGeometry>
        </mxCell>
        <mxCell id="lesJdgjOnKgALjX5jG1v-197" value="Amount" style="shape=partialRectangle;connectable=0;fillColor=none;top=0;left=0;bottom=0;right=0;align=left;spacingLeft=6;overflow=hidden;html=1;whiteSpace=wrap;" parent="lesJdgjOnKgALjX5jG1v-195" vertex="1">
          <mxGeometry x="60" width="110" height="30" as="geometry">
            <mxRectangle width="110" height="30" as="alternateBounds" />
          </mxGeometry>
        </mxCell>
        <mxCell id="lesJdgjOnKgALjX5jG1v-229" value="Categories" style="shape=table;startSize=30;container=1;collapsible=1;childLayout=tableLayout;fixedRows=1;rowLines=0;fontStyle=1;align=center;resizeLast=1;html=1;whiteSpace=wrap;" parent="1" vertex="1">
          <mxGeometry x="880" y="770" width="141" height="120" as="geometry" />
        </mxCell>
        <mxCell id="lesJdgjOnKgALjX5jG1v-230" value="" style="shape=tableRow;horizontal=0;startSize=0;swimlaneHead=0;swimlaneBody=0;fillColor=none;collapsible=0;dropTarget=0;points=[[0,0.5],[1,0.5]];portConstraint=eastwest;top=0;left=0;right=0;bottom=1;" parent="lesJdgjOnKgALjX5jG1v-229" vertex="1">
          <mxGeometry y="30" width="141" height="30" as="geometry" />
        </mxCell>
        <mxCell id="lesJdgjOnKgALjX5jG1v-231" value="PK" style="shape=partialRectangle;connectable=0;fillColor=none;top=0;left=0;bottom=0;right=0;fontStyle=1;overflow=hidden;whiteSpace=wrap;html=1;" parent="lesJdgjOnKgALjX5jG1v-230" vertex="1">
          <mxGeometry width="57" height="30" as="geometry">
            <mxRectangle width="57" height="30" as="alternateBounds" />
          </mxGeometry>
        </mxCell>
        <mxCell id="lesJdgjOnKgALjX5jG1v-232" value="ID" style="shape=partialRectangle;connectable=0;fillColor=none;top=0;left=0;bottom=0;right=0;align=left;spacingLeft=6;fontStyle=5;overflow=hidden;whiteSpace=wrap;html=1;" parent="lesJdgjOnKgALjX5jG1v-230" vertex="1">
          <mxGeometry x="57" width="84" height="30" as="geometry">
            <mxRectangle width="84" height="30" as="alternateBounds" />
          </mxGeometry>
        </mxCell>
        <mxCell id="lesJdgjOnKgALjX5jG1v-233" value="" style="shape=tableRow;horizontal=0;startSize=0;swimlaneHead=0;swimlaneBody=0;fillColor=none;collapsible=0;dropTarget=0;points=[[0,0.5],[1,0.5]];portConstraint=eastwest;top=0;left=0;right=0;bottom=0;html=1;" parent="lesJdgjOnKgALjX5jG1v-229" vertex="1">
          <mxGeometry y="60" width="141" height="30" as="geometry" />
        </mxCell>
        <mxCell id="lesJdgjOnKgALjX5jG1v-234" value="" style="shape=partialRectangle;connectable=0;fillColor=none;top=0;left=0;bottom=0;right=0;editable=1;overflow=hidden;html=1;whiteSpace=wrap;" parent="lesJdgjOnKgALjX5jG1v-233" vertex="1">
          <mxGeometry width="57" height="30" as="geometry">
            <mxRectangle width="57" height="30" as="alternateBounds" />
          </mxGeometry>
        </mxCell>
        <mxCell id="lesJdgjOnKgALjX5jG1v-235" value="Name" style="shape=partialRectangle;connectable=0;fillColor=none;top=0;left=0;bottom=0;right=0;align=left;spacingLeft=6;overflow=hidden;html=1;whiteSpace=wrap;" parent="lesJdgjOnKgALjX5jG1v-233" vertex="1">
          <mxGeometry x="57" width="84" height="30" as="geometry">
            <mxRectangle width="84" height="30" as="alternateBounds" />
          </mxGeometry>
        </mxCell>
        <mxCell id="lesJdgjOnKgALjX5jG1v-242" value="" style="shape=tableRow;horizontal=0;startSize=0;swimlaneHead=0;swimlaneBody=0;fillColor=none;collapsible=0;dropTarget=0;points=[[0,0.5],[1,0.5]];portConstraint=eastwest;top=0;left=0;right=0;bottom=0;html=1;" parent="lesJdgjOnKgALjX5jG1v-229" vertex="1">
          <mxGeometry y="90" width="141" height="30" as="geometry" />
        </mxCell>
        <mxCell id="lesJdgjOnKgALjX5jG1v-243" value="" style="shape=partialRectangle;connectable=0;fillColor=none;top=0;left=0;bottom=0;right=0;editable=1;overflow=hidden;html=1;whiteSpace=wrap;" parent="lesJdgjOnKgALjX5jG1v-242" vertex="1">
          <mxGeometry width="57" height="30" as="geometry">
            <mxRectangle width="57" height="30" as="alternateBounds" />
          </mxGeometry>
        </mxCell>
        <mxCell id="lesJdgjOnKgALjX5jG1v-244" value="Description" style="shape=partialRectangle;connectable=0;fillColor=none;top=0;left=0;bottom=0;right=0;align=left;spacingLeft=6;overflow=hidden;html=1;whiteSpace=wrap;" parent="lesJdgjOnKgALjX5jG1v-242" vertex="1">
          <mxGeometry x="57" width="84" height="30" as="geometry">
            <mxRectangle width="84" height="30" as="alternateBounds" />
          </mxGeometry>
        </mxCell>
        <mxCell id="lesJdgjOnKgALjX5jG1v-249" style="edgeStyle=entityRelationEdgeStyle;html=1;exitX=0;exitY=0.5;exitDx=0;exitDy=0;entryX=1;entryY=0.5;entryDx=0;entryDy=0;" parent="1" source="lesJdgjOnKgALjX5jG1v-214" target="lesJdgjOnKgALjX5jG1v-100" edge="1">
          <mxGeometry relative="1" as="geometry" />
        </mxCell>
        <mxCell id="lesJdgjOnKgALjX5jG1v-250" style="edgeStyle=entityRelationEdgeStyle;html=1;exitX=0;exitY=0.5;exitDx=0;exitDy=0;entryX=1;entryY=0.5;entryDx=0;entryDy=0;" parent="1" source="lesJdgjOnKgALjX5jG1v-223" target="lesJdgjOnKgALjX5jG1v-145" edge="1">
          <mxGeometry relative="1" as="geometry" />
        </mxCell>
        <mxCell id="lesJdgjOnKgALjX5jG1v-251" style="edgeStyle=entityRelationEdgeStyle;html=1;exitX=1;exitY=0.5;exitDx=0;exitDy=0;entryX=0;entryY=0.5;entryDx=0;entryDy=0;" parent="1" source="lesJdgjOnKgALjX5jG1v-217" target="lesJdgjOnKgALjX5jG1v-145" edge="1">
          <mxGeometry relative="1" as="geometry" />
        </mxCell>
        <mxCell id="lesJdgjOnKgALjX5jG1v-252" style="edgeStyle=none;html=1;exitX=0;exitY=0.5;exitDx=0;exitDy=0;entryX=0;entryY=0.5;entryDx=0;entryDy=0;" parent="1" source="lesJdgjOnKgALjX5jG1v-220" target="lesJdgjOnKgALjX5jG1v-120" edge="1">
          <mxGeometry relative="1" as="geometry">
            <mxPoint x="711" y="675" as="targetPoint" />
            <Array as="points">
              <mxPoint x="210" y="295" />
              <mxPoint x="210" y="630" />
            </Array>
          </mxGeometry>
        </mxCell>
        <mxCell id="lesJdgjOnKgALjX5jG1v-253" style="edgeStyle=entityRelationEdgeStyle;html=1;exitX=1;exitY=0.5;exitDx=0;exitDy=0;entryX=0;entryY=0.5;entryDx=0;entryDy=0;" parent="1" source="lesJdgjOnKgALjX5jG1v-205" target="lesJdgjOnKgALjX5jG1v-230" edge="1">
          <mxGeometry relative="1" as="geometry">
            <mxPoint x="530" y="735" as="targetPoint" />
          </mxGeometry>
        </mxCell>
        <mxCell id="lesJdgjOnKgALjX5jG1v-254" style="edgeStyle=entityRelationEdgeStyle;html=1;exitX=1;exitY=0.5;exitDx=0;exitDy=0;entryX=0;entryY=0.5;entryDx=0;entryDy=0;" parent="1" source="lesJdgjOnKgALjX5jG1v-208" target="lesJdgjOnKgALjX5jG1v-104" edge="1">
          <mxGeometry relative="1" as="geometry" />
        </mxCell>
      </root>
    </mxGraphModel>
  </diagram>
</mxfile>
